<svg xmlns="http://www.w3.org/2000/svg"
     width="300"
     height="300">
     <rect width="100%" height="100%" stroke="black" fill="transparent"/>
     <!-- Tête -->
     <circle cx="150" cy="125" r="80" fill="grey" stroke="black" />
     <!-- Oeil gauche -->
     <circle cx="120" cy="115" r="20" fill="#5ea15e" />
     <ellipse cx="120" cy="115" rx="5" ry="20" fill="black" />
     <!-- Oeil droit -->
     <circle cx="180" cy="115" r="20" fill="#5ea15e" />
     <ellipse cx="180" cy="115" rx="5" ry="20" fill="black" />

     <!-- vibrisses gauche -->
     <line x1="20" x2="100" y1="110" y2="150" stroke="black" fill="transparent" stroke-width="3"/>
     <line x1="20" x2="100" y1="160" y2="160" stroke="black" fill="transparent" stroke-width="3"/>
     <line x1="20" x2="100" y1="200" y2="170" stroke="black" fill="transparent" stroke-width="3"/>
     <!-- vibrisses droites -->
     <line x1="200" x2="280" y1="150" y2="110" stroke="black" fill="transparent" stroke-width="3"/>
     <line x1="200" x2="280" y1="160" y2="160" stroke="black" fill="transparent" stroke-width="3"/>
     <line x1="200" x2="280" y1="170" y2="200" stroke="black" fill="transparent" stroke-width="3"/>

     <!-- nez en forme de T -->
     <line x1="130" x2="170" y1="150" y2="150" stroke="blue" fill="transparent" stroke-width="3"/>
     <line x1="150" x2="150" y1="150" y2="180" stroke="blue" fill="transparent" stroke-width="3"/>

     <!-- Bouche -->
     <path d="M130 180 C 130 200, 170 200, 170 180" stroke="pink" fill="transparent" stroke-width="3"/>

     <!-- Oreille gauche -->
     <polygon points="100 50, 70 80, 65 30" stroke="black" fill="pink" stroke-width="3" />
     <!-- Oreille droite -->
     <polygon points="200 50, 230 80, 240 30" stroke="black" fill="pink" stroke-width="3" />
</svg>